<?xml version="1.0"?>
<svg xmlns="http://www.w3.org/2000/svg" id="Layer_1" data-name="Layer 1" viewBox="0 0 512 512"><path d="M243.156,48.824A7,7,0,0,1,255.6,42.4l15.648,30.3A7,7,0,1,1,258.8,79.126ZM303.378,80.7a7,7,0,0,0,7-7V28.6a7,7,0,1,0-14,0V73.7A7,7,0,0,0,303.378,80.7Zm35.11-.64a7,7,0,0,0,9.435-3l15.648-30.274a7,7,0,0,0-12.44-6.43L335.483,70.629A7,7,0,0,0,338.488,80.064ZM112.6,237.13a7,7,0,0,1,1.367-7.588l32.166-33.809a7,7,0,0,1,10.153,0l32.141,33.813a7,7,0,0,1-5.072,11.829H173.266v58.138a7,7,0,0,1-7,7h-30.1a7,7,0,0,1-7-7V241.375h-10.12A7,7,0,0,1,112.6,237.13Zm22.78-9.759h.777a7,7,0,0,1,7,7v58.138h16.1V234.373a7,7,0,0,1,7-7h.768l-15.82-16.649ZM479.355,43.583a7,7,0,0,1-6.434,4.239H462.8v58.111a7,7,0,0,1-7,7H425.7a7,7,0,0,1-7-7V47.822H408.6A7,7,0,0,1,403.526,36L435.674,2.176A7,7,0,0,1,440.744,0h0a7,7,0,0,1,5.069,2.172L478,36A7,7,0,0,1,479.355,43.583Zm-22.74-9.765L440.752,17.156,424.908,33.818h.787a7,7,0,0,1,7,7V98.931h16.1V40.82a7,7,0,0,1,7-7ZM77.755,364.885a7,7,0,1,0-13.585,3.4l.028.113A7,7,0,1,0,77.783,365ZM386.492,240.721a8.248,8.248,0,1,1,7.775-11.032A7,7,0,1,0,407.46,225a22.269,22.269,0,0,0-13.967-13.642v-5.668a7,7,0,1,0-14,0v5.664a22.253,22.253,0,0,0,7,43.376,8.249,8.249,0,1,1-7.786,11,7,7,0,0,0-13.173,4.75,22.381,22.381,0,0,0,13.957,13.607v5.646a7,7,0,1,0,14,0V284.1a22.254,22.254,0,0,0-7-43.377Zm70.158,7a70.1,70.1,0,0,1-112.918,55.53l-34.831,44.7a7,7,0,0,1-11.046,0l-144-184.794a7,7,0,0,1,.9-9.56l66.416-58.451a7,7,0,0,1,4.626-1.746H380.935a7,7,0,0,1,4.626,1.746L451.978,153.6a7,7,0,0,1,.9,9.562l-23,29.5A70.015,70.015,0,0,1,456.65,247.724Zm-23.636-81.866H366.56l-5.155,16.392a69.927,69.927,0,0,1,56.606,2.849Zm-62.379-14H428.8l-44.642-39.287Zm-49.921-44.447,37.322,38.023,13.086-38.023Zm-17.35,2.314-41.356,42.133h82.713ZM235.6,107.407l13.087,38.029,37.329-38.029ZM177.93,151.854h58.156l-13.519-39.283ZM285.071,308.765,240.177,165.858H173.709Zm34.507-40.038a70.054,70.054,0,0,1,23.977-76.394l8.326-26.475H254.855l48.516,154.435Zm2.086,40.065,11.844-15.2a70.555,70.555,0,0,1-5.023-6.5Zm120.983-61.068a56.141,56.141,0,1,0-56.155,56.126A56.2,56.2,0,0,0,442.647,247.724Zm6.874,120.689c7.581,23.816-9.629,33.138-21.018,39.307-1.491.808-2.9,1.57-4.238,2.344l-.176.1L275.636,490.3a46.071,46.071,0,0,1-22.406,5.6c-10.422,0-20.686-3.04-30.572-6.406l-67.911-23.077-14.033,4.017,3.112,9.8a15.2,15.2,0,0,1-9.84,18.991L95.928,511.306a15.182,15.182,0,0,1-18.991-9.841L32.8,362.322a15.152,15.152,0,0,1,9.813-18.992l.015,0L80.665,331.25a15.146,15.146,0,0,1,19,9.854l2.286,7.2,47.838-16.683c13.567-4.734,30.064-8.473,49.547-.3l79.288,33.28c11.641,4.9,18.5,15.933,21.164,26.97L414.493,348.3c.117-.044.235-.085.355-.123a25.5,25.5,0,0,1,19.554,1.883A31.277,31.277,0,0,1,449.521,368.413ZM130.471,484.444l-5.254-16.55c-.032-.1-.069-.187-.1-.284-.008-.027-.012-.054-.019-.081L86.315,345.343a1.145,1.145,0,0,0-.574-.672,1.064,1.064,0,0,0-.823-.079L46.872,356.668a1.125,1.125,0,0,0-.653.566,1.084,1.084,0,0,0-.082.837L90.279,497.214a1.18,1.18,0,0,0,1.438.736l38.016-12.068A1.183,1.183,0,0,0,130.471,484.444Zm305.7-111.8a17.2,17.2,0,0,0-8.223-10.161,11.573,11.573,0,0,0-8.711-1.013L300.866,406.135a39.336,39.336,0,0,1-2.021,9.14c-4.923,13.937-16.764,21.875-30.955,21.875a43.466,43.466,0,0,1-14.366-2.56l-53.285-18.623a7,7,0,1,1,4.62-13.219l53.292,18.625c9.726,3.408,22.756,2.637,27.486-10.748a25.534,25.534,0,0,0,1.417-9.2V401.4c-.271-10.742-5.97-20.563-13.86-23.884l-79.279-33.277c-12.182-5.11-23.631-4.933-39.516.608L106.186,361.66l30.289,95.416L153,452.347a7.014,7.014,0,0,1,4.18.1l69.988,23.783c17.934,6.1,29.907,8.191,41.81,1.748L417.35,397.886c1.476-.851,3-1.678,4.483-2.48C433.931,388.854,440.063,384.865,436.173,372.646Z"/></svg>
