<svg id="Layer_1" enable-background="new 0 0 512 512" viewBox="0 0 512 512" xmlns="http://www.w3.org/2000/svg"><path d="m509.1 421.2c-1.9-2.3-4.9-3.1-7.8-2.9 2.5-13.6 6.3-34.4 8.8-48.1 1.4-7.8-.7-16.1-6.3-21.6-6.3-6.2-35.8-35-41.5-40.6 1.7-.6 3-2.1 3.3-4 2.7-13.3-7.2-25.5-20.7-25.2h-52.9l5.6-31c2-10-5.6-19.4-15.8-19.2h-238.5c-9.7 0-18.7 7.6-20.5 17.3l-2.9 15.8h-62.6c-2.9 0-5.2 2.3-5.2 5.2s2.3 5.2 5.2 5.2h60.7l-16.7 91.3h-53.3c-2.9 0-5.2 2.3-5.2 5.2s2.3 5.2 5.2 5.2h51.5c-2.3 12.8-5.8 31.5-8.1 44.3-5.3-.6-10.6 2.8-11.6 8.3 0 0-2.1 11.6-2.1 11.6-1.1 5.2 2.8 10.3 8.1 10.2h38.6c6.5 43.5 64.6 35.2 78.4 0h168.9c6.5 43.5 64.6 35.2 78.3 0h49.3c4.6 0 8.7-3.6 9.6-8.3.4-5.1 4.4-14.4.2-18.7zm-43.9-95.9 31.3 30.6.7.7h-60.2l5.6-30.6c.1-.3.6-.7.8-.7zm-75.1-36.2h54.8c5.5-.1 9.8 3.4 10.6 8.7h-67zm-284 106.1h13.9c-.3 4.2-2.8 8.4-7.4 8.5h-8zm20 36.1c-.8 2.1-1.2 4.4-1.6 6.6h-36.2l1.7-9.2h37c-.3.8-.6 1.7-.9 2.6zm69.4 5.4c-5 32.4-59 46.7-60.9 6.5.4-18.9 19.2-36 37.1-35.7 15.7-.6 27.2 14.2 23.8 29.2zm8.1-19.3c-13.2-30.5-55-23.4-71 .8h-30.6l.7-4h9.9c8.1 0 15.7-6.3 17.2-14.4l1.6-8.8c.6-3.1-2-6.2-5.1-6.2h-18.2l2-10.9h9.4c6.8 0 6.8-10.4 0-10.4h-7.5l16.7-91.3h36.6c2.9 0 5.2-2.3 5.2-5.2s-2.3-5.2-5.2-5.2h-34.7s2.5-14 2.5-14c.9-4.8 5.6-8.8 10.3-8.8h238.5c3.9 0 6.3 3.1 5.5 6.9-7.4 40.5-23.8 130.7-31.4 172.4h-152c-.1-.3-.3-.6-.4-.9zm169.7 14.1c-.7 2.1-1.2 4.3-1.5 6.5h-166c.4-3.1.6-6.1.5-9.2h154 14c-.4.8-.7 1.7-1 2.7zm69.3 5.2c-3.1 17.2-19.9 31.1-36.7 31.1-14.1.2-24.8-10.4-24.2-24.6.4-18.9 19.1-36 37.1-35.7 15.8-.6 27.3 14.2 23.8 29.2zm8.2-19.3c-13.1-30.5-55-23.4-71 .8h-13.3l20.1-110h61.1l6.8 6.7h-11.2c-5.3 0-10.1 4.1-11.1 9.3l-5.7 31.2c-.5 3 .2 6 2.1 8.2 1.8 2.2 4.6 3.5 7.6 3.5h63.8c0 .4-.1.8-.2 1.2l-3 16.5h-20.1c-2.5 0-4.7 1.8-5.1 4.3-1.2 6.2-3.8 15.2 1.2 20.3 4 5.5 12.6 4.9 18.7 4.8l-.7 4h-39.5c-.2-.2-.4-.5-.5-.8zm44.1-22.2-1.6 8.5c-2.3-.3-11.7.8-12.5-1-1.5-1.5.1-5.7.2-7.5zm3.7 42.7h-45.6c.4-3.1.6-6.2.5-9.2h46.8zm-331-18.6c-22.4-.2-30.8 35.1-4.8 36.7 22.3-.1 31-34.7 4.8-36.7zm5.7 17.4c-1 7.9-15.7 13.7-16.2 3.1-.5-9.3 17.3-15.6 16.2-3.1zm241.5-17.4c-22.3-.3-30.8 35-4.8 36.7 22.3.1 31-34.8 4.8-36.7zm5.6 17.4c-1.1 5-5.8 8.9-10.4 8.9-5.8.3-7.1-6.3-4.2-10.4 3.5-6.8 16.1-8.1 14.6 1.5zm-237-137c0 2.9-2.3 5.2-5.2 5.2h-27.6l-3.4 18.4h25.7c2.9 0 5.2 2.3 5.2 5.2s-2.3 5.2-5.2 5.2h-27.6l-4.5 24.6c-1.3 6.7-11.5 4.8-10.3-1.9 0 0 10.5-57.7 10.5-57.7.5-2.5 2.6-4.3 5.1-4.3h31.9c3.1.1 5.4 2.5 5.4 5.3zm117.5 0c0 2.9-2.3 5.2-5.2 5.2h-27.6l-3.4 18.4h25.7c2.9 0 5.2 2.3 5.2 5.2s-2.3 5.2-5.2 5.2h-27.6l-3.4 18.4h25.7c2.9 0 5.2 2.3 5.2 5.2s-2.3 5.2-5.2 5.2h-31.9c-1.5 0-3-.7-4-1.9s-1.4-2.8-1.1-4.3l10.5-57.7c.5-2.5 2.6-4.3 5.1-4.3h31.9c3 .2 5.3 2.6 5.3 5.4zm26.3 5.2-3.4 18.4h25.7c2.9 0 5.2 2.3 5.2 5.2s-2.3 5.2-5.2 5.2h-27.6l-3.4 18.4h25.7c6.8.1 6.9 10.3 0 10.4h-31.9c-3.2.1-5.8-3.1-5.1-6.2 0 0 10.5-57.7 10.5-57.7.5-2.5 2.6-4.3 5.1-4.3h31.9c6.8 0 6.8 10.4 0 10.4.1.2-27.5.2-27.5.2zm-96.7-7.7c-.9-1.7-2.7-2.7-4.6-2.7h-21.3c-2.5 0-4.7 1.8-5.1 4.3l-10.5 57.7c-.5 2.8 1.4 5.6 4.2 6.1s5.6-1.3 6.1-4.2c0 0 1.9-10.2 1.9-10.2h13.8l6.5 11.7c1 1.7 2.7 2.7 4.6 2.7 3.8.1 6.5-4.4 4.6-7.7 0 0-6.2-11.1-6.2-11.1 1.3-1.8 12.1-12 12-14.3 0 0 2.6-14.4 2.6-14.4.2-1.2 0-2.4-.6-3.5zm-4 29-10.7 11.6h-12.8l6-32.9h13.8l5.6 10.1zm-143.8-77.9h-76.6c-6.8 0-6.8-10.4 0-10.4h76.6c6.8 0 6.9 10.4 0 10.4zm1.3 53.4h-72.1c-6.8 0-6.8-10.4 0-10.4h72.2c6.7 0 6.8 10.4-.1 10.4zm-32.4 21.7h46.8c6.8 0 6.8 10.4 0 10.4h-46.8c-6.8 0-6.9-10.4 0-10.4zm21.4 76.1c0 2.9-2.3 5.2-5.2 5.2h-46.8c-2.9 0-5.2-2.3-5.2-5.2s2.3-5.2 5.2-5.2h46.8c2.9 0 5.2 2.3 5.2 5.2zm223.4-319.5s-11.3 82.1-11.3 82.1c-.3 2 .7 4 2.4 5.1l65.1 40.8s.5.3.5.3c1.6 1 3.6 1.1 5.2.2 0 0 77-41.2 77-41.2 1.5-.8 2.5-2.2 2.7-3.9l11.4-82.1c.4-2.1-.6-4.2-2.4-5.3 0 0-65.6-41.2-65.6-41.2-1.6-1-3.6-1.1-5.2-.2l-39.5 21.1c-6.6 3.5-30.5 16.3-37.5 20.1-1.5.8-2.5 2.5-2.8 4.2zm131.7 79.4-66.2 35.4 9.7-70.4 17-8.9-2.1 15c-.7 4 4 7.4 7.6 5.3 0 0 20.8-10.9 20.8-10.9 1.5-.8 2.5-2.2 2.8-3.9l3.1-22.4 17-8.9zm-29.9-37.4 1.7-12.4 9.5-4.9-1.7 12.4zm-19.8-76.7 55.5 34.8-17.6 9.2-55.6-34.5zm-28.3 15.2 55.5 34.5-10.4 5.4-55.4-34.4zm-21 11.2 55.3 34.3-17.4 9-55.1-34.2zm32 52-9.8 71.2-55.4-34.8 9.8-70.8zm-156.2-79.6c0-2.9 2.3-5.2 5.2-5.2h96.1c2.9 0 5.2 2.3 5.2 5.2s-2.3 5.2-5.2 5.2h-96.1c-2.8 0-5.2-2.3-5.2-5.2zm-67.7 30.6c0-2.9 2.3-5.2 5.2-5.2h132.5c2.9 0 5.2 2.3 5.2 5.2s-2.3 5.2-5.2 5.2h-132.5c-2.9 0-5.2-2.4-5.2-5.2zm-4.9 92.6c0-2.9 2.3-5.2 5.2-5.2h132.5c2.9 0 5.2 2.3 5.2 5.2s-2.3 5.2-5.2 5.2h-132.5c-2.8 0-5.2-2.3-5.2-5.2zm133.9-56.1h-82.6c-6.8 0-6.8-10.4 0-10.4h82.6c6.8 0 6.9 10.4 0 10.4zm-5.8 19.8c6.8 0 6.8 10.4 0 10.4h-35.5c-6.8 0-6.8-10.4 0-10.4z"/></svg>