<?xml version="1.0"?>
<svg xmlns="http://www.w3.org/2000/svg" viewBox="0 0 64 64" width="512" height="512"><g id="outline"><path d="M59,2H35a1,1,0,0,0,0,2H59a1.0009,1.0009,0,0,1,1,1V7H24V5a1.0009,1.0009,0,0,1,1-1h3a1,1,0,0,0,0-2H25a3.0033,3.0033,0,0,0-3,3V25a3.0033,3.0033,0,0,0,3,3H59a3.0033,3.0033,0,0,0,3-3V5A3.0033,3.0033,0,0,0,59,2Zm1,7v4H24V9ZM59,26H25a1.0009,1.0009,0,0,1-1-1V15H60V25A1.0009,1.0009,0,0,1,59,26Z"/><path d="M31,4h1a1,1,0,0,0,0-2H31a1,1,0,0,0,0,2Z"/><path d="M47,36H19a1,1,0,0,0,0,2H47a1.0009,1.0009,0,0,1,1,1V59a1.0009,1.0009,0,0,1-1,1H5a1.0009,1.0009,0,0,1-1-1V39a1.0009,1.0009,0,0,1,1-1h6a1,1,0,0,0,0-2H5a3.0033,3.0033,0,0,0-3,3V59a3.0033,3.0033,0,0,0,3,3H47a3.0033,3.0033,0,0,0,3-3V39A3.0033,3.0033,0,0,0,47,36Z"/><path d="M15,36H14a1,1,0,0,0,0,2h1a1,1,0,0,0,0-2Z"/><path d="M6,34a1,1,0,0,0,1-1V16a1.0009,1.0009,0,0,1,1-1H19a1,1,0,0,0,0-2H8a3.0033,3.0033,0,0,0-3,3V33A1,1,0,0,0,6,34Z"/><path d="M59,30a1,1,0,0,0-1,1V48a1.0009,1.0009,0,0,1-1,1H53a1,1,0,0,0,0,2h4a3.0033,3.0033,0,0,0,3-3V31A1,1,0,0,0,59,30Z"/><path d="M9,41a2.0023,2.0023,0,0,1-2,2,1,1,0,0,0-1,1V54a1,1,0,0,0,1,1,2.0023,2.0023,0,0,1,2,2,1,1,0,0,0,1,1H42a1,1,0,0,0,1-1,2.0023,2.0023,0,0,1,2-2,1,1,0,0,0,1-1V44a1,1,0,0,0-1-1,2.0023,2.0023,0,0,1-2-2,1,1,0,0,0-1-1H10A1,1,0,0,0,9,41Zm32.127,1A4.0145,4.0145,0,0,0,44,44.8735v8.253A4.0145,4.0145,0,0,0,41.127,56H10.873A4.0145,4.0145,0,0,0,8,53.1265v-8.253A4.0145,4.0145,0,0,0,10.873,42Z"/><path d="M26,55a6,6,0,1,0-6-6A6.0066,6.0066,0,0,0,26,55Zm0-10a4,4,0,1,1-4,4A4.0042,4.0042,0,0,1,26,45Z"/><path d="M57,18H51a1,1,0,0,0-1,1v4a1,1,0,0,0,1,1h6a1,1,0,0,0,1-1V19A1,1,0,0,0,57,18Zm-1,4H52V20h4Z"/></g></svg>
